<svg version="1.0" preserveAspectRatio="xMidYMid meet" viewBox="0 92.24999778600001 375.75 191.24999541000003" zoomAndPan="magnify" xmlns:xlink="http://www.w3.org/1999/xlink" xmlns="http://www.w3.org/2000/svg" style="max-height: 500px" width="375.75" height="191.24999541000003"><defs><clipPath id="2272692e56"><path clip-rule="nonzero" d="M 0 92.511719 L 375 92.511719 L 375 282.261719 L 0 282.261719 Z M 0 92.511719"/></clipPath></defs><g clip-path="url(#2272692e56)"><path fill-rule="nonzero" fill-opacity="1" d="M 374.949219 282.261719 L 374.949219 92.734375 L 0.0507812 92.734375 L 0.0507812 282.261719 Z M 19.546875 189.765625 L 19.546875 109.367188 L 184.433594 109.367188 L 184.464844 100.539062 C 184.464844 99.3125 185.457031 98.324219 186.683594 98.324219 C 187.910156 98.324219 188.898438 99.3125 188.898438 100.539062 L 188.863281 109.367188 L 355.453125 109.367188 L 355.453125 265.765625 L 188.523438 265.765625 L 188.523438 274.421875 C 188.523438 275.648438 187.535156 276.636719 186.308594 276.636719 C 185.082031 276.636719 184.09375 275.648438 184.09375 274.421875 L 184.09375 265.765625 L 19.546875 265.765625 Z M 19.546875 189.765625" fill="#003a77"/></g><path fill-rule="nonzero" fill-opacity="1" d="M 351.058594 261.371094 L 238.929688 261.371094 L 238.929688 189.796875 L 351.058594 189.796875 Z M 351.058594 261.371094" fill="#007352"/><path fill-rule="nonzero" fill-opacity="1" d="M 234.53125 189.765625 L 234.53125 113.796875 L 188.828125 113.796875 L 188.523438 261.371094 L 234.53125 261.371094 Z M 234.53125 189.765625" fill="#007352"/><path fill-rule="nonzero" fill-opacity="1" d="M 184.125 261.371094 L 184.398438 113.796875 L 139.75 113.796875 L 139.75 261.371094 Z M 184.125 261.371094" fill="#007352"/><path fill-rule="nonzero" fill-opacity="1" d="M 135.355469 261.371094 L 23.941406 261.371094 L 23.941406 189.796875 L 135.355469 189.796875 Z M 135.355469 261.371094" fill="#007352"/><path fill-rule="nonzero" fill-opacity="1" d="M 351.058594 185.367188 L 238.929688 185.367188 L 238.929688 113.796875 L 351.058594 113.796875 Z M 351.058594 185.367188" fill="#007352"/><path fill-rule="nonzero" fill-opacity="1" d="M 135.355469 185.367188 L 23.941406 185.367188 L 23.941406 113.796875 L 135.355469 113.796875 Z M 135.355469 185.367188" fill="#007352"/><path fill-rule="nonzero" fill-opacity="1" d="M 184.125 265.765625 L 184.125 274.421875 C 184.125 275.648438 185.113281 276.636719 186.339844 276.636719 C 187.566406 276.636719 188.554688 275.648438 188.554688 274.421875 L 188.554688 265.765625 L 355.453125 265.765625 L 355.453125 109.367188 L 188.828125 109.367188 L 188.863281 100.539062 C 188.863281 99.3125 187.875 98.324219 186.648438 98.324219 C 185.421875 98.324219 184.433594 99.3125 184.433594 100.539062 L 184.398438 109.367188 L 19.546875 109.367188 L 19.546875 265.765625 Z M 238.929688 113.796875 L 351.058594 113.796875 L 351.058594 185.367188 L 238.929688 185.367188 Z M 351.058594 189.765625 L 351.058594 261.335938 L 238.929688 261.335938 L 238.929688 189.765625 Z M 188.828125 113.796875 L 234.53125 113.796875 L 234.53125 261.371094 L 188.523438 261.371094 Z M 139.75 113.796875 L 184.398438 113.796875 L 184.125 261.371094 L 139.75 261.371094 Z M 23.941406 113.796875 L 135.355469 113.796875 L 135.355469 185.367188 L 23.941406 185.367188 Z M 23.941406 261.371094 L 23.941406 189.796875 L 135.355469 189.796875 L 135.355469 261.371094 Z M 23.941406 261.371094" fill="#ffffff"/></svg>