<svg version="1.0" preserveAspectRatio="xMidYMid meet" viewBox="92.25 0 190.5 373.49999103600004" zoomAndPan="magnify" xmlns:xlink="http://www.w3.org/1999/xlink" xmlns="http://www.w3.org/2000/svg" style="max-height: 500px" width="190.5" height="373.49999103600004"><defs><clipPath id="401228bca1"><path clip-rule="nonzero" d="M 92.511719 0 L 282.261719 0 L 282.261719 374.996094 L 92.511719 374.996094 Z M 92.511719 0"/></clipPath></defs><g clip-path="url(#401228bca1)"><path fill-rule="nonzero" fill-opacity="1" d="M 282.261719 0.0507812 L 92.738281 0.0507812 L 92.738281 374.945312 L 282.261719 374.945312 Z M 189.765625 355.453125 L 109.367188 355.453125 L 109.367188 190.566406 L 100.539062 190.53125 C 99.3125 190.53125 98.324219 189.542969 98.324219 188.316406 C 98.324219 187.089844 99.3125 186.101562 100.539062 186.101562 L 109.367188 186.132812 L 109.367188 19.542969 L 265.769531 19.542969 L 265.769531 186.476562 L 274.425781 186.476562 C 275.652344 186.476562 276.640625 187.464844 276.640625 188.691406 C 276.640625 189.917969 275.652344 190.90625 274.425781 190.90625 L 265.769531 190.90625 L 265.769531 355.453125 Z M 189.765625 355.453125" fill="#003a77"/></g><path fill-rule="nonzero" fill-opacity="1" d="M 261.371094 23.941406 L 261.371094 136.070312 L 189.800781 136.070312 L 189.800781 23.941406 Z M 261.371094 23.941406" fill="#007352"/><path fill-rule="nonzero" fill-opacity="1" d="M 189.765625 140.464844 L 113.796875 140.464844 L 113.796875 186.167969 L 261.371094 186.476562 L 261.371094 140.464844 Z M 189.765625 140.464844" fill="#007352"/><path fill-rule="nonzero" fill-opacity="1" d="M 261.371094 190.871094 L 113.796875 190.597656 L 113.796875 235.246094 L 261.371094 235.246094 Z M 261.371094 190.871094" fill="#007352"/><path fill-rule="nonzero" fill-opacity="1" d="M 261.371094 239.644531 L 261.371094 351.054688 L 189.800781 351.054688 L 189.800781 239.644531 Z M 261.371094 239.644531" fill="#007352"/><path fill-rule="nonzero" fill-opacity="1" d="M 185.371094 23.941406 L 185.371094 136.070312 L 113.796875 136.070312 L 113.796875 23.941406 Z M 185.371094 23.941406" fill="#007352"/><path fill-rule="nonzero" fill-opacity="1" d="M 185.371094 239.644531 L 185.371094 351.054688 L 113.796875 351.054688 L 113.796875 239.644531 Z M 185.371094 239.644531" fill="#007352"/><path fill-rule="nonzero" fill-opacity="1" d="M 265.769531 190.871094 L 274.425781 190.871094 C 275.652344 190.871094 276.640625 189.882812 276.640625 188.65625 C 276.640625 187.429688 275.652344 186.441406 274.425781 186.441406 L 265.769531 186.441406 L 265.769531 19.542969 L 109.367188 19.542969 L 109.367188 186.167969 L 100.539062 186.132812 C 99.3125 186.132812 98.324219 187.125 98.324219 188.351562 C 98.324219 189.578125 99.3125 190.566406 100.539062 190.566406 L 109.367188 190.597656 L 109.367188 355.453125 L 265.769531 355.453125 Z M 113.796875 136.070312 L 113.796875 23.941406 L 185.371094 23.941406 L 185.371094 136.070312 Z M 189.765625 23.941406 L 261.335938 23.941406 L 261.335938 136.070312 L 189.765625 136.070312 Z M 113.796875 186.167969 L 113.796875 140.464844 L 261.371094 140.464844 L 261.371094 186.476562 Z M 113.796875 235.246094 L 113.796875 190.597656 L 261.371094 190.871094 L 261.371094 235.246094 Z M 113.796875 351.054688 L 113.796875 239.644531 L 185.371094 239.644531 L 185.371094 351.054688 Z M 261.371094 351.054688 L 189.800781 351.054688 L 189.800781 239.644531 L 261.371094 239.644531 Z M 261.371094 351.054688" fill="#ffffff"/></svg>