<svg version="1.0" preserveAspectRatio="xMidYMid meet" viewBox="28.722510373443985 27.81599939 354.24429460580916 173.73599619" zoomAndPan="magnify" xmlns:xlink="http://www.w3.org/1999/xlink" xmlns="http://www.w3.org/2000/svg" style="max-height: 500px" width="354.24429460580916" height="173.73599619"><defs><filter id="62d8e066a1" height="100%" width="100%" y="0%" x="0%"><feColorMatrix color-interpolation-filters="sRGB" values="0 0 0 0 1 0 0 0 0 1 0 0 0 0 1 0 0 0 1 0"/></filter><g/><clipPath id="e19f028c09"><path clip-rule="nonzero" d="M 74 32 L 153 32 L 153 197 L 74 197 Z M 74 32"/></clipPath><clipPath id="bc9f347d25"><path clip-rule="nonzero" d="M 0 113.765625 L 113.894531 -0.125 L 227.785156 113.765625 L 113.894531 227.65625 Z M 0 113.765625"/></clipPath><clipPath id="0abdc3a181"><path clip-rule="nonzero" d="M 0 113.765625 L 113.894531 -0.125 L 227.785156 113.765625 L 113.894531 227.65625 Z M 0 113.765625"/></clipPath><clipPath id="cbf423c74f"><path clip-rule="nonzero" d="M 125 42 L 194 42 L 194 194 L 125 194 Z M 125 42"/></clipPath><clipPath id="a7431b3399"><path clip-rule="nonzero" d="M 0 113.765625 L 113.894531 -0.125 L 227.785156 113.765625 L 113.894531 227.65625 Z M 0 113.765625"/></clipPath><clipPath id="54f56bc6d7"><path clip-rule="nonzero" d="M 0 113.765625 L 113.894531 -0.125 L 227.785156 113.765625 L 113.894531 227.65625 Z M 0 113.765625"/></clipPath><clipPath id="47224901f1"><path clip-rule="nonzero" d="M 33 42 L 103 42 L 103 194 L 33 194 Z M 33 42"/></clipPath><clipPath id="4c79e04b6b"><path clip-rule="nonzero" d="M 0 113.765625 L 113.894531 -0.125 L 227.785156 113.765625 L 113.894531 227.65625 Z M 0 113.765625"/></clipPath><clipPath id="4934404086"><path clip-rule="nonzero" d="M 0 113.765625 L 113.894531 -0.125 L 227.785156 113.765625 L 113.894531 227.65625 Z M 0 113.765625"/></clipPath><mask id="23497f5412"><g filter="url(#62d8e066a1)"><rect fill-opacity="0.37" height="273.599994" y="-22.8" fill="#000000" width="527.4" x="-43.95"/></g></mask><clipPath id="31c416dcdf"><path clip-rule="nonzero" d="M 18 0.308594 L 70 0.308594 L 70 59 L 18 59 Z M 18 0.308594"/></clipPath><clipPath id="2e927103b8"><rect height="60" y="0" width="71" x="0"/></clipPath></defs><g clip-path="url(#e19f028c09)"><g clip-path="url(#bc9f347d25)"><g clip-path="url(#0abdc3a181)"><path fill-rule="evenodd" fill-opacity="1" d="M 126.1875 136.632812 C 122.160156 143.019531 121.835938 148.074219 121.835938 155.855469 L 121.835938 186.65625 L 122.398438 187.082031 C 123.066406 187.585938 123.457031 188.230469 123.636719 189.039062 C 123.898438 190.242188 123.734375 191.734375 123.734375 192.710938 C 123.734375 194.550781 122.226562 196.058594 120.382812 196.058594 L 106.882812 196.058594 C 105.039062 196.058594 103.535156 194.550781 103.535156 192.707031 C 103.535156 191.875 103.34375 189.644531 103.75 188.574219 C 103.972656 187.984375 104.363281 187.464844 104.871094 187.082031 L 105.429688 186.65625 C 105.429688 176.203125 105.429688 165.75 105.429688 155.292969 C 105.425781 147.792969 104.972656 142.804688 101.078125 136.632812 C 96.914062 130.027344 93.714844 128.957031 87.820312 125.320312 C 79.707031 120.316406 74.269531 111.339844 74.269531 101.15625 L 74.269531 60.8125 C 74.269531 45.207031 87.035156 32.441406 102.640625 32.441406 L 124.625 32.441406 C 140.230469 32.441406 153 45.207031 153 60.8125 L 153 101.15625 C 153 111.339844 147.558594 120.316406 139.445312 125.320312 C 133.550781 128.957031 130.351562 130.027344 126.1875 136.632812 Z M 121.132812 141.632812 C 118.65625 141.761719 116.15625 141.863281 113.585938 141.867188 C 111.125 141.867188 108.636719 141.773438 106.140625 141.644531 C 106.386719 142.207031 106.613281 142.863281 106.816406 143.582031 C 109.105469 143.695312 111.378906 143.773438 113.589844 143.773438 C 115.894531 143.769531 118.179688 143.6875 120.453125 143.570312 C 120.65625 142.851562 120.882812 142.191406 121.132812 141.632812 Z M 119.882812 146.203125 C 118.164062 146.792969 116.140625 147.15625 114.128906 147.519531 C 111.871094 147.925781 109.621094 148.328125 107.714844 149.03125 C 107.757812 149.671875 107.78125 150.3125 107.78125 150.9375 L 107.78125 151.078125 C 109.632812 150.253906 112.042969 149.820312 114.464844 149.386719 C 116.226562 149.070312 117.996094 148.75 119.613281 148.289062 C 119.679688 147.585938 119.769531 146.882812 119.882812 146.203125 Z M 119.484375 152.386719 C 117.855469 152.898438 115.988281 153.234375 114.128906 153.570312 C 111.898438 153.96875 109.675781 154.371094 107.785156 155.058594 L 107.785156 157.128906 C 109.632812 156.308594 112.042969 155.875 114.464844 155.4375 C 116.179688 155.128906 117.902344 154.820312 119.484375 154.378906 Z M 119.484375 158.4375 C 117.855469 158.949219 115.988281 159.285156 114.128906 159.621094 C 111.898438 160.019531 109.675781 160.421875 107.785156 161.109375 L 107.785156 163.179688 C 109.632812 162.359375 112.042969 161.925781 114.464844 161.488281 C 116.179688 161.179688 117.902344 160.871094 119.484375 160.429688 Z M 119.484375 164.488281 C 117.855469 165 115.988281 165.335938 114.128906 165.671875 C 111.898438 166.074219 109.675781 166.472656 107.78125 167.160156 L 107.78125 169.234375 C 109.632812 168.410156 112.042969 167.976562 114.464844 167.539062 C 116.179688 167.230469 117.902344 166.921875 119.484375 166.480469 Z M 119.484375 170.539062 C 117.855469 171.050781 115.988281 171.386719 114.128906 171.722656 C 111.898438 172.125 109.675781 172.523438 107.785156 173.210938 L 107.785156 175.285156 C 109.632812 174.460938 112.042969 174.027344 114.464844 173.589844 C 116.179688 173.28125 117.902344 172.972656 119.484375 172.53125 Z M 119.484375 176.589844 C 117.855469 177.105469 115.988281 177.441406 114.128906 177.773438 C 111.898438 178.175781 109.675781 178.574219 107.785156 179.261719 L 107.785156 181.335938 C 109.632812 180.511719 112.042969 180.078125 114.464844 179.644531 C 116.179688 179.335938 117.902344 179.023438 119.484375 178.582031 Z M 119.484375 182.640625 C 117.855469 183.15625 115.988281 183.492188 114.128906 183.824219 C 111.898438 184.226562 109.675781 184.625 107.78125 185.3125 L 107.78125 186.40625 L 110.863281 186.40625 C 112.011719 186.132812 113.238281 185.914062 114.464844 185.695312 C 116.179688 185.386719 117.902344 185.074219 119.484375 184.632812 Z M 124.414062 35.5625 L 102.855469 35.5625 C 95.835938 35.5625 89.453125 38.433594 84.828125 43.058594 C 80.203125 47.683594 77.335938 54.0625 77.335938 61.082031 L 77.332031 100.886719 C 77.332031 107.90625 80.203125 114.285156 84.828125 118.910156 C 89.453125 123.535156 95.835938 126.40625 102.855469 126.40625 L 124.410156 126.40625 C 131.429688 126.40625 137.8125 123.535156 142.4375 118.910156 C 147.0625 114.285156 149.933594 107.90625 149.933594 100.886719 L 149.933594 61.082031 C 149.933594 54.0625 147.0625 47.683594 142.4375 43.058594 C 137.8125 38.433594 131.429688 35.5625 124.410156 35.5625 Z M 102.855469 37.214844 L 124.410156 37.214844 C 130.976562 37.214844 136.941406 39.898438 141.269531 44.226562 C 145.59375 48.554688 148.28125 54.519531 148.28125 61.082031 L 148.28125 100.886719 C 148.28125 107.449219 145.59375 113.417969 141.269531 117.742188 C 136.941406 122.070312 130.976562 124.753906 124.410156 124.753906 L 102.851562 124.753906 C 96.289062 124.753906 90.324219 122.070312 85.996094 117.742188 C 81.671875 113.417969 78.984375 107.449219 78.984375 100.886719 L 78.984375 61.082031 C 78.984375 54.519531 81.671875 48.554688 85.996094 44.226562 C 90.324219 39.898438 96.289062 37.214844 102.851562 37.214844 Z M 102.855469 37.214844" fill="#007352"/></g></g></g><g clip-path="url(#cbf423c74f)"><g clip-path="url(#a7431b3399)"><g clip-path="url(#54f56bc6d7)"><path fill-rule="evenodd" fill-opacity="1" d="M 126.964844 193.007812 C 142.886719 190.34375 158.164062 182.867188 170.449219 170.582031 C 201.828125 139.203125 201.828125 88.328125 170.449219 56.949219 C 164.3125 50.8125 157.429688 45.882812 150.097656 42.148438 C 153.953125 47.386719 156.238281 53.84375 156.238281 60.8125 L 156.238281 101.15625 C 156.238281 112.160156 150.476562 122.320312 141.144531 128.078125 C 135.507812 131.554688 132.628906 132.484375 128.925781 138.359375 C 125.199219 144.273438 125.074219 149.035156 125.074219 155.855469 L 125.074219 185.132812 C 125.945312 186.011719 126.523438 187.097656 126.796875 188.34375 C 127.140625 189.902344 126.96875 191.164062 126.972656 192.707031 C 126.972656 192.808594 126.96875 192.910156 126.964844 193.007812 Z M 126.964844 193.007812" fill="#002f6d"/></g></g></g><g clip-path="url(#47224901f1)"><g clip-path="url(#4c79e04b6b)"><g clip-path="url(#4934404086)"><path fill-rule="evenodd" fill-opacity="1" d="M 56.816406 56.949219 C 25.4375 88.328125 25.4375 139.203125 56.816406 170.582031 C 69.101562 182.867188 84.378906 190.34375 100.300781 193.007812 C 100.296875 192.910156 100.296875 192.808594 100.292969 192.707031 C 100.296875 190.929688 100.070312 189.144531 100.722656 187.425781 C 101.046875 186.570312 101.550781 185.785156 102.191406 185.132812 C 102.191406 175.1875 102.195312 165.242188 102.191406 155.296875 C 102.191406 148.699219 101.933594 144.0625 98.339844 138.359375 C 94.636719 132.484375 91.757812 131.554688 86.121094 128.078125 C 76.789062 122.320312 71.03125 112.160156 71.03125 101.15625 L 71.03125 60.8125 C 71.03125 53.84375 73.3125 47.386719 77.167969 42.148438 C 69.835938 45.882812 62.953125 50.8125 56.816406 56.949219 Z M 56.816406 56.949219" fill="#002f6d"/></g></g></g><path stroke-miterlimit="4" stroke-opacity="1" stroke-width="13.139978" stroke="#1d794c" d="M 106.33875 6.967996 C 111.011434 6.967996 114.610394 7.987039 117.140602 10.020153 C 119.675782 12.043326 120.948342 14.727633 120.948342 18.073076 C 120.948342 19.395346 120.749505 20.787209 120.35183 22.238724 C 119.114066 26.647947 116.673334 29.913855 113.039577 32.036446 C 109.410791 34.144125 104.817643 35.197964 99.255161 35.197964 L 92.459886 35.197964 L 90.198108 43.206148 C 90.113602 43.464637 90.068864 43.812603 90.068864 44.255016 C 90.068864 44.876384 90.213021 45.38839 90.491394 45.786066 C 90.779708 46.173799 91.217151 46.631125 91.798751 47.158045 C 92.280932 47.600459 92.609014 47.933512 92.782997 48.157204 C 92.95698 48.375925 93.041486 48.639385 93.041486 48.952554 C 93.041486 49.703166 92.683578 50.235057 91.977705 50.548226 C 91.276802 50.851453 90.242847 51.000582 88.875838 51.000582 L 72.282841 51.000582 C 71.144496 51.000582 70.289494 50.791802 69.717836 50.369272 C 69.136236 49.951713 68.937399 49.370113 69.121323 48.629443 C 69.205829 48.226797 69.374841 47.913628 69.623388 47.675023 C 69.857023 47.426476 70.219901 47.148103 70.702082 46.834934 C 71.457665 46.39252 72.054178 45.930223 72.496592 45.448042 C 72.934034 44.965861 73.286971 44.215249 73.54546 43.206148 L 81.613295 14.702779 C 81.787278 14.131121 81.871784 13.579346 81.871784 13.052427 C 81.871784 12.570246 81.79722 12.162629 81.648092 11.829576 C 81.493993 11.496523 81.285213 11.108789 81.016783 10.666376 C 80.619107 10.094718 80.42027 9.63242 80.42027 9.279483 C 80.42027 9.150239 80.465008 8.906663 80.549514 8.553726 C 80.733439 7.982068 81.121172 7.579422 81.712714 7.340817 C 82.304256 7.09227 83.218909 6.967996 84.456673 6.967996 Z M 104.613834 21.060611 C 105.096015 19.425172 105.339591 17.98857 105.339591 16.750806 C 105.339591 14.200714 104.151537 12.923182 101.770456 12.923182 L 98.802805 12.923182 L 94.105267 29.242778 L 97.013267 29.242778 C 98.862457 29.242778 100.368651 28.661178 101.531851 27.497978 C 102.704993 26.324836 103.729007 24.182361 104.613834 21.060611 Z M 148.313366 16.025049 C 150.788894 16.025049 152.762357 16.775661 154.238727 18.281855 C 155.710125 19.778108 156.445824 21.632269 156.445824 23.834395 C 156.445824 24.664542 156.361318 25.435038 156.192306 26.145882 C 155.749892 27.950333 154.909803 29.342197 153.672039 30.306559 C 152.434275 31.275892 150.952935 31.763044 149.23299 31.763044 C 147.567725 31.763044 146.300136 31.37034 145.440163 30.584932 C 144.58019 29.78461 143.819637 28.7258 143.163473 27.40353 C 142.810536 26.647947 142.477483 26.101144 142.164314 25.758149 C 141.861086 25.400241 141.513121 25.226258 141.115445 25.226258 C 140.673032 25.226258 140.285298 25.400241 139.952245 25.758149 C 139.619192 26.101144 139.325907 26.712569 139.067418 27.597397 L 133.967234 44.125772 C 133.877757 44.339522 133.837989 44.667604 133.837989 45.110018 C 133.837989 45.691618 134.00203 46.168828 134.335083 46.546619 C 134.668136 46.909498 135.120492 47.272377 135.69215 47.625313 C 136.21907 47.983221 136.567035 48.271536 136.741018 48.500199 C 136.924943 48.713949 136.994536 48.997293 136.949798 49.3552 C 136.85535 49.921888 136.532239 50.344418 135.980464 50.612848 C 135.433661 50.871337 134.499124 51.000582 133.171883 51.000582 L 116.260746 51.000582 C 115.107488 51.000582 114.277341 50.811686 113.775276 50.433894 C 113.26824 50.056103 113.079345 49.56398 113.208589 48.952554 C 113.392514 48.420664 113.854811 47.958366 114.595481 47.560691 C 115.261587 47.207754 115.818332 46.785225 116.260746 46.303043 C 116.698189 45.820862 117.071009 45.050367 117.374237 43.996527 L 123.2648 24.883264 C 123.349306 24.669513 123.394045 24.361315 123.394045 23.96364 C 123.394045 23.481459 123.289655 23.108638 123.085846 22.850149 C 122.89198 22.581718 122.57384 22.248665 122.136397 21.85099 C 121.693983 21.498054 121.380814 21.189855 121.196889 20.931366 C 121.027877 20.662936 121.007994 20.305028 121.152151 19.867585 C 121.405669 18.853514 122.792561 17.958744 125.297915 17.188249 C 127.818181 16.412782 130.442837 16.025049 133.171883 16.025049 C 134.981306 16.025049 136.477558 16.432666 137.660642 17.252871 C 138.853668 18.068105 139.629134 19.226334 139.987042 20.722587 C 142.104662 17.590895 144.883418 16.025049 148.313366 16.025049 Z M 179.714793 16.025049 C 185.709747 16.025049 190.123941 17.237958 192.967319 19.673719 C 195.815667 22.094566 197.242327 25.261055 197.242327 29.178156 C 197.242327 30.500426 197.068344 31.981766 196.710437 33.617205 C 195.870348 37.231078 194.304502 40.397567 192.012898 43.106729 C 189.721295 45.805949 186.912714 47.898715 183.587155 49.385026 C 180.266568 50.861395 176.657665 51.597094 172.775361 51.597094 C 166.651163 51.597094 162.122637 50.374243 159.184812 47.933512 C 156.256928 45.477867 154.795472 42.226873 154.795472 38.170586 C 154.795472 36.803577 154.974426 35.28247 155.327362 33.617205 C 156.167451 30.172344 157.763123 27.125157 160.119348 24.465705 C 162.475574 21.79631 165.36369 19.723428 168.773755 18.25203 C 172.193761 16.765719 175.842431 16.025049 179.714793 16.025049 Z M 179.520927 21.915613 C 178.596332 21.915613 177.612086 22.745759 176.568188 24.401082 C 175.534233 26.046464 174.311382 29.163243 172.904606 33.746449 C 171.492859 38.329656 170.791956 41.545854 170.791956 43.400015 C 170.791956 44.364377 170.946055 45.01557 171.259225 45.348623 C 171.572394 45.686647 171.989953 45.850688 172.516872 45.850688 C 173.441467 45.935194 174.400859 45.139843 175.390076 43.464637 C 176.379293 41.784459 177.622028 38.523523 179.11828 33.681827 C 180.485289 29.41179 181.166308 26.299981 181.166308 24.351373 C 181.166308 23.426778 181.02215 22.790498 180.733836 22.447503 C 180.450492 22.094566 180.047846 21.915613 179.520927 21.915613 Z M 229.767187 16.025049 C 232.098557 16.025049 234.037224 16.865138 235.573244 18.540344 C 237.124178 20.220522 237.899644 22.512125 237.899644 25.420125 C 237.899644 29.332255 236.532636 33.343803 233.798619 37.439858 C 231.069573 41.540883 227.609799 44.926093 223.424267 47.595488 C 219.238736 50.264882 215.157594 51.597094 211.185813 51.597094 C 207.397957 51.597094 204.320946 50.826599 201.954778 49.290578 C 199.598553 47.739645 198.42044 45.532548 198.42044 42.669286 C 198.42044 41.615447 198.619277 40.427393 199.016953 39.105123 L 203.1826 24.883264 C 203.267106 24.530327 203.311845 24.266867 203.311845 24.092884 C 203.311845 23.655441 203.197513 23.282621 202.973821 22.979394 C 202.755099 22.666224 202.456843 22.333171 202.06911 21.980235 C 201.403004 21.408577 201.069951 20.901541 201.069951 20.464098 C 201.025212 19.83776 201.403004 19.176625 202.198354 18.475722 C 202.993705 17.769849 204.107195 17.183278 205.538826 16.716009 C 206.970456 16.253712 208.590983 16.025049 210.395434 16.025049 C 213.343201 16.025049 215.644746 16.740864 217.290128 18.172495 C 218.945451 19.604125 219.775597 21.463257 219.775597 23.75486 C 219.775597 24.778874 219.601615 25.882423 219.25862 27.065506 L 214.948815 41.217772 C 214.81957 41.615447 214.754948 41.943529 214.754948 42.202018 C 214.754948 42.773676 214.953786 43.21609 215.351461 43.529259 C 215.749136 43.837457 216.300911 43.996527 216.996842 43.996527 C 217.966175 43.996527 219.09955 43.564056 220.401936 42.704083 C 221.704322 41.84411 222.996767 40.611317 224.279269 39.005704 C 225.556801 37.395119 226.590756 35.486278 227.376165 33.279181 C 225.621423 31.73819 224.378688 30.222053 223.64796 28.7258 C 222.917231 27.219605 222.549382 25.673643 222.549382 24.092884 C 222.549382 21.846019 223.170749 19.942149 224.408513 18.381274 C 225.646277 16.810457 227.430845 16.025049 229.767187 16.025049 Z M 259.518262 15.701938 C 265.11554 15.701938 269.166856 16.596707 271.67221 18.381274 C 274.192476 20.165842 275.450124 22.447503 275.450124 25.226258 C 275.450124 26.051434 275.355676 26.82193 275.176722 27.532775 C 274.520558 30.435803 272.676339 32.518627 269.654008 33.776275 C 266.641618 35.038894 263.087396 35.665232 258.986371 35.665232 C 256.908518 35.665232 254.969852 35.531017 253.16043 35.262586 C 253.115691 37.554189 253.737059 39.164774 255.01459 40.089369 C 256.297093 41.013963 258.08166 41.476261 260.373263 41.476261 C 261.427102 41.476261 262.441174 41.356958 263.410507 41.123324 C 264.379841 40.874777 265.612634 40.506928 267.118829 40.024746 C 268.346651 39.582333 269.181769 39.363611 269.624182 39.363611 C 270.106363 39.363611 270.34994 39.646955 270.34994 40.218613 C 270.394678 41.769546 269.818049 43.395044 268.620052 45.095105 C 267.436969 46.780254 265.677256 48.221826 263.345885 49.419823 C 261.009544 50.602906 258.191021 51.194448 254.885346 51.194448 C 249.98897 51.194448 245.977421 49.961655 242.845729 47.496069 C 239.723979 45.035454 238.168075 41.441464 238.168075 36.7141 C 238.168075 35.39183 238.337087 33.85581 238.680082 32.101068 C 239.788601 26.677773 242.204478 22.586689 245.927712 19.832789 C 249.650946 17.078888 254.184443 15.701938 259.518262 15.701938 Z M 253.627698 31.290805 C 253.801681 31.335544 254.040286 31.355427 254.353455 31.355427 C 256.202645 31.355427 257.614392 30.500426 258.583725 28.790422 C 259.553058 27.070477 260.015356 25.146723 259.970617 23.029103 C 259.925879 21.801281 259.577913 21.189855 258.921749 21.189855 C 258.439568 21.189855 257.862939 21.577589 257.196833 22.353055 C 256.540669 23.113609 255.889475 24.271838 255.243253 25.822771 C 254.606973 27.358792 254.070112 29.183127 253.627698 31.290805 Z M 315.038689 41.878907 C 314.949212 42.05289 314.909444 42.31635 314.909444 42.669286 C 314.909444 42.982456 314.984008 43.226032 315.133137 43.400015 C 315.297178 43.569026 315.505957 43.658503 315.764446 43.658503 C 316.301307 43.658503 316.753663 43.424869 317.121513 42.962572 C 317.494333 42.500274 317.752822 42.26664 317.892008 42.26664 C 318.11073 42.26664 318.279742 42.415768 318.408986 42.704083 C 318.548172 42.992397 318.617765 43.335392 318.617765 43.723126 C 318.662504 45.000657 318.244945 46.248363 317.360118 47.466243 C 316.480261 48.679153 315.187817 49.678312 313.487756 50.448807 C 311.787694 51.214332 309.749609 51.597094 307.368529 51.597094 C 304.4655 51.597094 302.154013 50.926017 300.429097 49.578893 C 298.709151 48.236739 297.824324 46.437259 297.784557 44.190394 C 297.784557 42.564897 298.182232 40.735591 298.977582 38.702476 L 302.611339 29.178156 C 302.835031 28.606498 302.949363 28.1442 302.949363 27.791263 C 302.949363 27.219605 302.760467 26.772221 302.382676 26.44911 C 302.004884 26.116057 301.552529 25.952016 301.025609 25.952016 C 300.061247 25.952016 299.131681 26.404371 298.251825 27.304111 C 297.366998 28.208822 296.730717 29.317342 296.333042 30.62967 L 292.232017 44.125772 C 292.058034 44.607953 291.973528 45.07025 291.973528 45.512664 C 291.973528 46.039584 292.082889 46.472055 292.296639 46.805108 C 292.520331 47.138161 292.8335 47.476185 293.231176 47.81918 C 293.534403 48.087611 293.748153 48.336158 293.877398 48.564821 C 294.016584 48.778571 294.04641 49.042031 293.956933 49.3552 C 293.773008 49.921888 293.355449 50.344418 292.699285 50.612848 C 292.043121 50.871337 291.004195 51.000582 289.582506 51.000582 L 274.525529 51.000582 C 273.372271 51.000582 272.547095 50.811686 272.040059 50.433894 C 271.533023 50.056103 271.344127 49.56398 271.473372 48.952554 C 271.657297 48.420664 272.119594 47.958366 272.865235 47.560691 C 273.531341 47.207754 274.083115 46.785225 274.525529 46.303043 C 274.967943 45.820862 275.335792 45.050367 275.63902 43.996527 L 281.529583 24.883264 C 281.614089 24.669513 281.658828 24.361315 281.658828 23.96364 C 281.658828 23.481459 281.559409 23.108638 281.350629 22.850149 C 281.156763 22.581718 280.843594 22.248665 280.40118 21.85099 C 279.958766 21.498054 279.645597 21.189855 279.466643 20.931366 C 279.29266 20.662936 279.277747 20.305028 279.416934 19.867585 C 279.675423 18.853514 281.057344 17.958744 283.562698 17.188249 C 286.082964 16.412782 288.70762 16.025049 291.441637 16.025049 C 293.643764 16.025049 295.388564 16.631503 296.671066 17.849384 C 297.948598 19.052351 298.520256 20.7375 298.381069 22.899859 C 300.190491 20.305028 302.104303 18.51549 304.127476 17.526273 C 306.16059 16.527114 308.367687 16.025049 310.743797 16.025049 C 313.433075 16.025049 315.600405 16.840283 317.245786 18.475722 C 318.90608 20.101219 319.736227 22.21884 319.736227 24.818641 C 319.736227 26.18565 319.512535 27.532775 319.070121 28.855045 Z M 315.038689 41.878907" stroke-linejoin="miter" fill="none" transform="matrix(0.785817, 0, 0, 0.785817, 113.640307, 63.477554)" stroke-linecap="butt"/><path stroke-miterlimit="4" stroke-opacity="1" stroke-width="13.139978" stroke="#1d794c" d="M 97.654518 70.968847 C 102.322231 70.968847 105.921191 71.98789 108.4514 74.021004 C 110.99155 76.044177 112.259139 78.728484 112.259139 82.073927 C 112.259139 83.396197 112.060302 84.78806 111.662627 86.239574 C 110.424863 90.648798 107.989102 93.914705 104.350374 96.037297 C 100.726559 98.144975 96.12844 99.198814 90.565958 99.198814 L 83.770683 99.198814 L 81.513877 107.202027 C 81.4244 107.460516 81.384632 107.813453 81.384632 108.255867 C 81.384632 108.877234 81.523818 109.389241 81.802191 109.786916 C 82.095476 110.17465 82.527948 110.631976 83.109548 111.158896 C 83.5967 111.601309 83.924782 111.934362 84.093794 112.158055 C 84.267777 112.376776 84.352283 112.640236 84.352283 112.948434 C 84.352283 113.704017 83.999346 114.235907 83.288502 114.549077 C 82.5876 114.847333 81.553644 115.001432 80.191607 115.001432 L 63.598609 115.001432 C 62.455293 115.001432 61.600291 114.792653 61.028633 114.370123 C 60.452004 113.952564 60.253167 113.370964 60.432121 112.625323 C 60.521598 112.227648 60.685639 111.909508 60.934186 111.675873 C 61.172791 111.427326 61.530698 111.148954 62.01785 110.835785 C 62.768462 110.393371 63.364975 109.931073 63.807389 109.448892 C 64.249802 108.96174 64.597768 108.216099 64.856257 107.202027 L 72.924092 78.698658 C 73.098075 78.131971 73.182581 77.580197 73.182581 77.053277 C 73.182581 76.571096 73.108017 76.163479 72.958889 75.825455 C 72.809761 75.492402 72.59601 75.104669 72.32758 74.667226 C 71.929905 74.095568 71.731067 73.633271 71.731067 73.275363 C 71.731067 73.15109 71.775805 72.907513 71.860311 72.549606 C 72.044236 71.982919 72.431969 71.575302 73.023511 71.341667 C 73.615053 71.09312 74.529706 70.968847 75.76747 70.968847 Z M 95.924631 85.061461 C 96.411783 83.426022 96.650388 81.989421 96.650388 80.751657 C 96.650388 78.201564 95.462334 76.924033 93.086225 76.924033 L 90.113602 76.924033 L 85.421035 93.243628 L 88.324064 93.243628 C 90.173254 93.243628 91.679449 92.662028 92.842648 91.498829 C 94.01579 90.325687 95.044775 88.178241 95.924631 85.061461 Z M 130.765949 80.025899 C 135.831336 80.025899 139.887623 80.960436 142.934809 82.83448 C 145.981995 84.703554 147.503103 87.561844 147.503103 91.404381 C 147.503103 92.855895 147.234672 94.506247 146.697811 96.360408 L 143.983678 105.477111 C 143.938939 105.661036 143.919055 105.879757 143.919055 106.138246 C 143.919055 106.849091 144.212341 107.202027 144.78897 107.202027 C 145.315889 107.202027 145.763274 106.973364 146.131124 106.511067 C 146.508915 106.048769 146.767404 105.815135 146.90659 105.815135 C 147.120341 105.815135 147.304265 105.974205 147.453394 106.282404 C 147.617435 106.585631 147.69697 106.933597 147.69697 107.331272 C 147.741708 108.519327 147.289353 109.727265 146.339903 110.965029 C 145.395425 112.202793 144.122864 113.216865 142.532163 114.017186 C 140.951404 114.802595 139.211575 115.195299 137.317647 115.195299 C 135.026044 115.195299 133.062523 114.77774 131.427084 113.952564 C 129.801586 113.112475 128.678154 111.874711 128.051815 110.239272 C 126.729545 111.829972 125.163699 113.057795 123.359248 113.917767 C 121.559768 114.767798 119.621101 115.195299 117.548219 115.195299 C 115.211878 115.195299 113.248357 114.742943 111.657656 113.838232 C 110.071926 112.933521 108.893813 111.76535 108.118347 110.33372 C 107.357793 108.902089 106.97503 107.395894 106.97503 105.815135 C 106.97503 105.104291 107.039653 104.423272 107.168897 103.767108 C 107.879741 100.719922 109.410791 98.428319 111.767016 96.892298 C 114.123242 95.341365 116.931823 94.565898 120.192759 94.565898 C 123.851371 94.565898 127.445361 95.142527 130.974728 96.295785 L 132.620109 91.921358 C 133.191767 90.067198 133.475111 88.635567 133.475111 87.626466 C 133.435343 86.572627 133.077436 85.782248 132.41133 85.255328 C 131.755166 84.728408 130.746065 84.464949 129.379056 84.464949 C 129.647487 85.16088 129.781702 85.886637 129.781702 86.64222 C 129.781702 88.267718 129.160335 89.674494 127.922571 90.87249 C 126.684807 92.065516 124.920123 92.662028 122.62852 92.662028 C 120.481074 92.662028 118.795925 92.189789 117.578045 91.24034 C 116.365136 90.285919 115.75371 89.102836 115.75371 87.691089 C 115.75371 85.493933 116.986503 83.669598 119.452089 82.218084 C 121.927618 80.756628 125.69559 80.025899 130.765949 80.025899 Z M 127.067569 100.053816 C 125.829805 100.053816 124.825675 100.526055 124.050209 101.475505 C 123.284684 102.419983 122.906893 103.448968 122.906893 104.557488 C 122.906893 105.25839 123.065963 105.825077 123.389074 106.267491 C 123.722127 106.709904 124.199337 106.928626 124.825675 106.928626 C 125.397334 106.928626 126.018701 106.699963 126.69972 106.237665 C 127.385709 105.775368 127.887774 105.079436 128.200944 104.154841 L 129.587836 100.262595 C 128.832253 100.123409 127.992164 100.053816 127.067569 100.053816 Z M 185.381665 105.477111 C 185.282246 105.830048 185.237507 106.073624 185.237507 106.202869 C 185.237507 106.516038 185.322013 106.764585 185.495996 106.94851 C 185.679921 107.117522 185.903613 107.202027 186.172044 107.202027 C 186.698964 107.202027 187.151319 106.973364 187.529111 106.511067 C 187.906902 106.048769 188.155449 105.815135 188.284694 105.815135 C 188.503415 105.815135 188.672427 105.974205 188.801671 106.282404 C 188.940858 106.585631 189.015422 106.933597 189.015422 107.331272 C 189.055189 108.519327 188.602834 109.727265 187.658355 110.965029 C 186.708906 112.202793 185.441316 113.216865 183.850615 114.017186 C 182.264885 114.802595 180.549911 115.195299 178.700722 115.195299 C 176.493624 115.195299 174.574841 114.77774 172.939402 113.952564 C 171.313905 113.112475 170.195443 112.008926 169.579047 110.641918 C 168.386021 112.182909 167.014042 113.326225 165.463109 114.081808 C 163.927088 114.822478 162.301591 115.195299 160.591588 115.195299 C 158.558473 115.195299 156.669516 114.688263 154.924716 113.674191 C 153.194829 112.66509 151.802966 111.223518 150.759069 109.349474 C 149.730084 107.4804 149.213106 105.352838 149.213106 102.976729 C 149.213106 98.960209 149.968689 95.182295 151.484826 91.628073 C 153.015875 88.078822 155.143438 85.215561 157.877454 83.04326 C 160.611471 80.856046 163.718309 79.76741 167.192996 79.76741 C 169.086924 79.76741 170.702479 79.986132 172.049604 80.428545 C 173.396729 80.870959 174.61958 81.532094 175.728099 82.41195 L 177.974964 75.00525 C 178.104209 74.607575 178.168831 74.274522 178.168831 74.006091 C 178.168831 73.518939 178.044557 73.126235 177.79601 72.827978 C 177.557405 72.514809 177.239265 72.20164 176.84159 71.888471 C 176.404147 71.545476 176.081036 71.237278 175.877228 70.968847 C 175.683361 70.700416 175.653535 70.35245 175.792722 69.919979 C 176.051211 68.895965 177.433132 68.016109 179.943456 67.275439 C 182.458752 66.519856 185.083408 66.142064 187.817425 66.142064 C 190.377459 66.142064 192.261445 66.629216 193.469384 67.59855 C 194.682293 68.562912 195.293719 69.890153 195.293719 71.56536 C 195.293719 72.534693 195.134649 73.484143 194.821479 74.408737 Z M 174.341207 86.900709 C 173.630363 86.284313 172.854896 85.981085 172.019778 85.981085 C 170.737276 85.981085 169.479628 86.925564 168.241864 88.819492 C 167.014042 90.71342 166.024825 93.005023 165.269242 95.694302 C 164.528572 98.388551 164.180606 100.81437 164.220374 102.976729 C 164.220374 105.397576 165.010753 106.605515 166.596483 106.605515 C 167.173112 106.605515 167.660264 106.376851 168.047997 105.914554 C 168.445673 105.452257 168.823464 104.686732 169.176401 103.622951 Z M 223.394442 105.477111 C 223.299994 105.830048 223.250284 106.073624 223.250284 106.202869 C 223.250284 106.516038 223.33479 106.764585 223.508773 106.94851 C 223.692698 107.117522 223.91639 107.202027 224.184821 107.202027 C 224.711741 107.202027 225.164096 106.973364 225.541888 106.511067 C 225.919679 106.048769 226.168226 105.815135 226.297471 105.815135 C 226.516192 105.815135 226.685204 105.974205 226.814448 106.282404 C 226.953635 106.585631 227.028199 106.933597 227.028199 107.331272 C 227.067966 108.519327 226.615611 109.727265 225.671132 110.965029 C 224.721683 112.202793 223.454093 113.216865 221.863392 114.017186 C 220.277662 114.802595 218.562688 115.195299 216.713499 115.195299 C 214.506401 115.195299 212.587618 114.77774 210.952179 113.952564 C 209.326682 113.112475 208.20822 112.008926 207.591824 110.641918 C 206.398798 112.182909 205.026819 113.326225 203.475886 114.081808 C 201.939865 114.822478 200.314368 115.195299 198.604365 115.195299 C 196.57125 115.195299 194.682293 114.688263 192.937493 113.674191 C 191.207606 112.66509 189.815743 111.223518 188.771846 109.349474 C 187.742861 107.4804 187.225883 105.352838 187.225883 102.976729 C 187.225883 98.960209 187.981466 95.182295 189.502574 91.628073 C 191.028652 88.078822 193.156215 85.215561 195.890232 83.04326 C 198.624248 80.856046 201.731086 79.76741 205.205773 79.76741 C 207.099701 79.76741 208.715256 79.986132 210.062381 80.428545 C 211.409506 80.870959 212.632357 81.532094 213.740877 82.41195 L 215.987741 75.00525 C 216.116986 74.607575 216.181608 74.274522 216.181608 74.006091 C 216.181608 73.518939 216.057334 73.126235 215.808787 72.827978 C 215.570182 72.514809 215.252042 72.20164 214.854367 71.888471 C 214.416924 71.545476 214.093813 71.237278 213.890005 70.968847 C 213.696138 70.700416 213.666312 70.35245 213.805499 69.919979 C 214.063988 68.895965 215.445909 68.016109 217.956234 67.275439 C 220.471529 66.519856 223.096185 66.142064 225.830202 66.142064 C 228.390236 66.142064 230.274222 66.629216 231.482161 67.59855 C 232.69507 68.562912 233.306496 69.890153 233.306496 71.56536 C 233.306496 72.534693 233.147426 73.484143 232.834256 74.408737 Z M 212.353984 86.900709 C 211.64314 86.284313 210.867673 85.981085 210.032555 85.981085 C 208.750053 85.981085 207.492405 86.925564 206.254641 88.819492 C 205.026819 90.71342 204.037602 93.005023 203.282019 95.694302 C 202.541349 98.388551 202.193383 100.81437 202.233151 102.976729 C 202.233151 105.397576 203.02353 106.605515 204.60926 106.605515 C 205.185889 106.605515 205.673041 106.376851 206.060774 105.914554 C 206.45845 105.452257 206.836241 104.686732 207.189178 103.622951 Z M 250.829059 66.142064 C 253.379151 66.142064 255.258166 66.629216 256.461134 67.59855 C 257.679014 68.562912 258.285469 69.890153 258.285469 71.56536 C 258.285469 72.534693 258.13634 73.484143 257.833113 74.408737 L 247.458762 108.126622 C 247.319575 108.653542 247.245011 109.115839 247.245011 109.513515 C 247.245011 110.080202 247.354372 110.532557 247.568122 110.870581 C 247.796785 111.203634 248.109955 111.516803 248.50763 111.820031 C 248.815828 112.1332 249.03952 112.391689 249.168765 112.595497 C 249.307951 112.789364 249.327835 113.042882 249.233387 113.356051 C 249.019637 113.922738 248.577223 114.345268 247.911117 114.613699 C 247.254953 114.872188 246.240881 115.001432 244.873873 115.001432 L 229.801983 115.001432 C 228.658667 115.001432 227.823549 114.812536 227.296629 114.434745 C 226.759768 114.056954 226.580814 113.564831 226.764739 112.948434 C 226.938722 112.421514 227.401019 111.959217 228.151631 111.561542 C 228.807795 111.208605 229.35957 110.786075 229.801983 110.303894 C 230.239426 109.816742 230.617217 109.051217 230.930387 107.997378 L 240.966714 75.00525 C 241.110871 74.607575 241.180464 74.274522 241.180464 74.006091 C 241.180464 73.518939 241.056191 73.126235 240.807644 72.827978 C 240.569039 72.514809 240.250899 72.20164 239.853224 71.888471 C 239.415781 71.545476 239.09267 71.237278 238.888861 70.968847 C 238.694995 70.700416 238.660198 70.35245 238.789442 69.919979 C 239.057873 68.895965 240.444765 68.016109 242.95509 67.275439 C 245.470386 66.519856 248.095042 66.142064 250.829059 66.142064 Z M 276.349864 79.702788 C 281.947142 79.702788 285.998458 80.592586 288.503812 82.382125 C 291.019107 84.166692 292.281726 86.448354 292.281726 89.222138 C 292.281726 90.052285 292.187278 90.822781 292.003354 91.533625 C 291.347189 94.436654 289.507942 96.519478 286.48561 97.777126 C 283.473221 99.039744 279.918999 99.666083 275.817973 99.666083 C 273.74012 99.666083 271.796483 99.531867 269.992032 99.263437 C 269.947293 101.55504 270.568661 103.165624 271.846192 104.090219 C 273.128695 105.014814 274.913262 105.477111 277.204866 105.477111 C 278.258705 105.477111 279.272777 105.357809 280.237139 105.124175 C 281.206472 104.875628 282.444236 104.507778 283.950431 104.025597 C 285.178253 103.583183 286.013371 103.364462 286.455785 103.364462 C 286.937966 103.364462 287.181542 103.647806 287.181542 104.219464 C 287.221309 105.765426 286.649651 107.390923 285.451655 109.090985 C 284.268571 110.781104 282.508858 112.222677 280.177488 113.420673 C 277.841146 114.603757 275.022623 115.195299 271.716948 115.195299 C 266.820572 115.195299 262.809024 113.962506 259.677332 111.49692 C 256.555581 109.031333 254.994706 105.437344 254.994706 100.714951 C 254.994706 99.392681 255.168689 97.85169 255.511684 96.101919 C 256.620204 90.678623 259.03608 86.58754 262.759314 83.833639 C 266.482548 81.079739 271.011075 79.702788 276.349864 79.702788 Z M 270.4593 95.291656 C 270.633283 95.336394 270.871888 95.356278 271.185057 95.356278 C 273.034247 95.356278 274.445994 94.501276 275.415327 92.791273 C 276.37969 91.071328 276.846958 89.147574 276.802219 87.029954 C 276.757481 85.802131 276.409515 85.190706 275.753351 85.190706 C 275.266199 85.190706 274.694541 85.578439 274.023464 86.348935 C 273.3673 87.11446 272.716107 88.272689 272.074856 89.823622 C 271.438575 91.359642 270.901714 93.183977 270.4593 95.291656 Z M 312.707318 79.429387 C 316.36593 79.429387 319.527447 79.76244 322.181929 80.428545 C 324.851324 81.08471 326.904322 82.009304 328.330982 83.20233 C 329.762613 84.385414 330.478428 85.732538 330.478428 87.238733 C 330.478428 88.779724 329.871973 90.032401 328.654093 91.001735 C 327.451126 91.966097 325.765977 92.453249 323.603618 92.453249 C 321.406463 92.453249 319.547331 91.901475 318.021253 90.807868 C 316.500145 89.699348 315.744562 88.307485 315.744562 86.64222 C 315.744562 86.070562 315.829068 85.518788 316.003051 84.976955 C 315.217643 84.763205 314.511769 84.658815 313.885431 84.658815 C 312.791824 84.658815 311.877171 84.922275 311.141472 85.449195 C 310.420686 85.976114 310.082662 86.721755 310.1274 87.691089 C 310.1274 88.844347 310.699058 89.81368 311.837404 90.614001 C 312.990662 91.39941 314.839851 92.388627 317.389943 93.581652 C 319.597041 94.550986 321.416405 95.445755 322.843064 96.260989 C 324.274695 97.081194 325.487604 98.105208 326.476821 99.342972 C 327.47598 100.570794 327.978045 102.022308 327.978045 103.702486 C 327.978045 104.045481 327.888568 104.701645 327.704643 105.670978 C 327.003741 108.628687 325.045191 110.97 321.828993 112.689945 C 318.612795 114.404919 314.377554 115.259921 309.128241 115.259921 C 303.227736 115.259921 298.550081 114.469542 295.085336 112.883812 C 291.620591 111.293111 289.885733 109.110868 289.885733 106.332113 C 289.885733 104.438185 290.457391 103.006554 291.595736 102.037221 C 292.748994 101.072859 294.275073 100.585707 296.183914 100.585707 C 298.376098 100.585707 300.255114 101.271696 301.815989 102.638705 C 303.386806 104.000742 304.172214 105.745542 304.172214 107.868133 C 304.172214 108.434821 304.107592 109.026362 303.978348 109.642759 C 305.032187 109.91119 306.041288 110.045405 307.010621 110.045405 C 308.163879 110.045405 309.108358 109.737207 309.853999 109.125781 C 310.60461 108.499443 310.982402 107.63947 310.982402 106.540892 C 310.937663 105.531792 310.435598 104.661877 309.466265 103.926178 C 308.496932 103.19545 306.95097 102.325536 304.833349 101.311464 C 302.854915 100.386869 301.224447 99.521925 299.941944 98.716633 C 298.664413 97.896428 297.570806 96.867444 296.666095 95.62968 C 295.761384 94.396886 295.309029 92.940401 295.309029 91.275136 C 295.309029 87.656292 296.815223 84.778118 299.827613 82.640614 C 302.854915 80.498139 307.144836 79.429387 312.707318 79.429387 Z M 312.707318 79.429387" stroke-linejoin="miter" fill="none" transform="matrix(0.785817, 0, 0, 0.785817, 113.640307, 63.477554)" stroke-linecap="butt"/><g fill-opacity="1" fill="#ffeedc"><g transform="translate(169.200038, 103.55423)"><g><path d="M 28 -34.59375 C 31.675781 -34.59375 34.507812 -33.796875 36.5 -32.203125 C 38.488281 -30.617188 39.484375 -28.507812 39.484375 -25.875 C 39.484375 -24.832031 39.328125 -23.738281 39.015625 -22.59375 C 38.046875 -19.132812 36.128906 -16.570312 33.265625 -14.90625 C 30.410156 -13.25 26.800781 -12.421875 22.4375 -12.421875 L 17.09375 -12.421875 L 15.328125 -6.125 C 15.253906 -5.914062 15.21875 -5.640625 15.21875 -5.296875 C 15.21875 -4.816406 15.328125 -4.421875 15.546875 -4.109375 C 15.773438 -3.796875 16.117188 -3.429688 16.578125 -3.015625 C 16.953125 -2.671875 17.207031 -2.410156 17.34375 -2.234375 C 17.488281 -2.054688 17.5625 -1.847656 17.5625 -1.609375 C 17.5625 -1.023438 17.28125 -0.609375 16.71875 -0.359375 C 16.164062 -0.117188 15.351562 0 14.28125 0 L 1.25 0 C 0.34375 0 -0.332031 -0.160156 -0.78125 -0.484375 C -1.226562 -0.816406 -1.382812 -1.28125 -1.25 -1.875 C -1.175781 -2.1875 -1.046875 -2.4375 -0.859375 -2.625 C -0.671875 -2.8125 -0.382812 -3.023438 0 -3.265625 C 0.59375 -3.617188 1.0625 -3.984375 1.40625 -4.359375 C 1.75 -4.742188 2.023438 -5.332031 2.234375 -6.125 L 8.578125 -28.515625 C 8.710938 -28.972656 8.78125 -29.410156 8.78125 -29.828125 C 8.78125 -30.203125 8.71875 -30.519531 8.59375 -30.78125 C 8.476562 -31.039062 8.316406 -31.34375 8.109375 -31.6875 C 7.796875 -32.132812 7.640625 -32.5 7.640625 -32.78125 C 7.640625 -32.882812 7.671875 -33.078125 7.734375 -33.359375 C 7.878906 -33.804688 8.179688 -34.125 8.640625 -34.3125 C 9.109375 -34.5 9.832031 -34.59375 10.8125 -34.59375 Z M 26.65625 -23.53125 C 27.03125 -24.8125 27.21875 -25.9375 27.21875 -26.90625 C 27.21875 -28.914062 26.285156 -29.921875 24.421875 -29.921875 L 22.078125 -29.921875 L 18.390625 -17.09375 L 20.671875 -17.09375 C 22.128906 -17.09375 23.316406 -17.550781 24.234375 -18.46875 C 25.148438 -19.382812 25.957031 -21.070312 26.65625 -23.53125 Z M 26.65625 -23.53125"/></g></g></g><g fill-opacity="1" fill="#ffeedc"><g transform="translate(204.681837, 103.55423)"><g><path d="M 25.515625 -27.484375 C 27.453125 -27.484375 29 -26.894531 30.15625 -25.71875 C 31.320312 -24.539062 31.90625 -23.085938 31.90625 -21.359375 C 31.90625 -20.691406 31.832031 -20.082031 31.6875 -19.53125 C 31.34375 -18.113281 30.6875 -17.023438 29.71875 -16.265625 C 28.75 -15.503906 27.585938 -15.125 26.234375 -15.125 C 24.921875 -15.125 23.925781 -15.429688 23.25 -16.046875 C 22.570312 -16.671875 21.972656 -17.503906 21.453125 -18.546875 C 21.179688 -19.140625 20.921875 -19.570312 20.671875 -19.84375 C 20.429688 -20.125 20.15625 -20.265625 19.84375 -20.265625 C 19.5 -20.265625 19.195312 -20.125 18.9375 -19.84375 C 18.675781 -19.570312 18.441406 -19.085938 18.234375 -18.390625 L 14.234375 -5.40625 C 14.160156 -5.226562 14.125 -4.96875 14.125 -4.625 C 14.125 -4.175781 14.253906 -3.800781 14.515625 -3.5 C 14.773438 -3.207031 15.128906 -2.925781 15.578125 -2.65625 C 15.992188 -2.375 16.269531 -2.144531 16.40625 -1.96875 C 16.550781 -1.800781 16.609375 -1.578125 16.578125 -1.296875 C 16.503906 -0.847656 16.25 -0.519531 15.8125 -0.3125 C 15.382812 -0.101562 14.648438 0 13.609375 0 L 0.3125 0 C -0.582031 0 -1.226562 -0.144531 -1.625 -0.4375 C -2.03125 -0.738281 -2.179688 -1.128906 -2.078125 -1.609375 C -1.941406 -2.023438 -1.578125 -2.390625 -0.984375 -2.703125 C -0.460938 -2.972656 -0.03125 -3.300781 0.3125 -3.6875 C 0.65625 -4.070312 0.945312 -4.675781 1.1875 -5.5 L 5.8125 -20.515625 C 5.882812 -20.691406 5.921875 -20.9375 5.921875 -21.25 C 5.921875 -21.625 5.84375 -21.914062 5.6875 -22.125 C 5.53125 -22.332031 5.28125 -22.59375 4.9375 -22.90625 C 4.59375 -23.1875 4.347656 -23.429688 4.203125 -23.640625 C 4.066406 -23.847656 4.050781 -24.125 4.15625 -24.46875 C 4.363281 -25.269531 5.453125 -25.972656 7.421875 -26.578125 C 9.398438 -27.179688 11.460938 -27.484375 13.609375 -27.484375 C 15.023438 -27.484375 16.203125 -27.160156 17.140625 -26.515625 C 18.078125 -25.878906 18.6875 -24.972656 18.96875 -23.796875 C 20.625 -26.253906 22.804688 -27.484375 25.515625 -27.484375 Z M 25.515625 -27.484375"/></g></g></g><g fill-opacity="1" fill="#ffeedc"><g transform="translate(234.760844, 103.55423)"><g><path d="M 20.109375 -27.484375 C 24.816406 -27.484375 28.285156 -26.53125 30.515625 -24.625 C 32.753906 -22.71875 33.875 -20.222656 33.875 -17.140625 C 33.875 -16.097656 33.734375 -14.9375 33.453125 -13.65625 C 32.796875 -10.820312 31.566406 -8.335938 29.765625 -6.203125 C 27.960938 -4.078125 25.753906 -2.429688 23.140625 -1.265625 C 20.523438 -0.109375 17.695312 0.46875 14.65625 0.46875 C 9.832031 0.46875 6.269531 -0.488281 3.96875 -2.40625 C 1.664062 -4.332031 0.515625 -6.890625 0.515625 -10.078125 C 0.515625 -11.148438 0.65625 -12.34375 0.9375 -13.65625 C 1.59375 -16.363281 2.847656 -18.765625 4.703125 -20.859375 C 6.554688 -22.953125 8.820312 -24.578125 11.5 -25.734375 C 14.1875 -26.898438 17.054688 -27.484375 20.109375 -27.484375 Z M 19.953125 -22.859375 C 19.222656 -22.859375 18.453125 -22.207031 17.640625 -20.90625 C 16.828125 -19.613281 15.863281 -17.164062 14.75 -13.5625 C 13.644531 -9.957031 13.09375 -7.425781 13.09375 -5.96875 C 13.09375 -5.207031 13.210938 -4.695312 13.453125 -4.4375 C 13.691406 -4.175781 14.019531 -4.046875 14.4375 -4.046875 C 15.164062 -3.984375 15.921875 -4.609375 16.703125 -5.921875 C 17.484375 -7.234375 18.460938 -9.796875 19.640625 -13.609375 C 20.710938 -16.972656 21.25 -19.414062 21.25 -20.9375 C 21.25 -21.664062 21.132812 -22.164062 20.90625 -22.4375 C 20.6875 -22.71875 20.367188 -22.859375 19.953125 -22.859375 Z M 19.953125 -22.859375"/></g></g></g><g fill-opacity="1" fill="#ffeedc"><g transform="translate(268.839994, 103.55423)"><g><path d="M 25.359375 -27.484375 C 27.191406 -27.484375 28.710938 -26.820312 29.921875 -25.5 C 31.140625 -24.1875 31.75 -22.390625 31.75 -20.109375 C 31.75 -17.023438 30.671875 -13.867188 28.515625 -10.640625 C 26.367188 -7.421875 23.648438 -4.765625 20.359375 -2.671875 C 17.078125 -0.578125 13.875 0.46875 10.75 0.46875 C 7.769531 0.46875 5.351562 -0.132812 3.5 -1.34375 C 1.65625 -2.5625 0.734375 -4.296875 0.734375 -6.546875 C 0.734375 -7.378906 0.882812 -8.3125 1.1875 -9.34375 L 4.46875 -20.515625 C 4.539062 -20.796875 4.578125 -21.003906 4.578125 -21.140625 C 4.578125 -21.492188 4.488281 -21.789062 4.3125 -22.03125 C 4.132812 -22.269531 3.890625 -22.53125 3.578125 -22.8125 C 3.066406 -23.257812 2.8125 -23.65625 2.8125 -24 C 2.769531 -24.488281 3.0625 -25.007812 3.6875 -25.5625 C 4.3125 -26.113281 5.1875 -26.570312 6.3125 -26.9375 C 7.4375 -27.300781 8.707031 -27.484375 10.125 -27.484375 C 12.445312 -27.484375 14.257812 -26.921875 15.5625 -25.796875 C 16.863281 -24.671875 17.515625 -23.207031 17.515625 -21.40625 C 17.515625 -20.601562 17.375 -19.738281 17.09375 -18.8125 L 13.71875 -7.6875 C 13.613281 -7.375 13.5625 -7.113281 13.5625 -6.90625 C 13.5625 -6.457031 13.71875 -6.109375 14.03125 -5.859375 C 14.34375 -5.617188 14.773438 -5.5 15.328125 -5.5 C 16.085938 -5.5 16.976562 -5.835938 18 -6.515625 C 19.019531 -7.191406 20.03125 -8.160156 21.03125 -9.421875 C 22.039062 -10.691406 22.859375 -12.191406 23.484375 -13.921875 C 22.097656 -15.128906 21.117188 -16.320312 20.546875 -17.5 C 19.972656 -18.6875 19.6875 -19.898438 19.6875 -21.140625 C 19.6875 -22.910156 20.171875 -24.410156 21.140625 -25.640625 C 22.109375 -26.867188 23.515625 -27.484375 25.359375 -27.484375 Z M 25.359375 -27.484375"/></g></g></g><g fill-opacity="1" fill="#ffeedc"><g transform="translate(299.957999, 103.55423)"><g><path d="M 17.609375 -27.75 C 22.003906 -27.75 25.1875 -27.046875 27.15625 -25.640625 C 29.132812 -24.234375 30.125 -22.441406 30.125 -20.265625 C 30.125 -19.609375 30.054688 -19 29.921875 -18.4375 C 29.398438 -16.15625 27.953125 -14.519531 25.578125 -13.53125 C 23.210938 -12.539062 20.421875 -12.046875 17.203125 -12.046875 C 15.566406 -12.046875 14.039062 -12.148438 12.625 -12.359375 C 12.59375 -10.554688 13.078125 -9.289062 14.078125 -8.5625 C 15.078125 -7.84375 16.476562 -7.484375 18.28125 -7.484375 C 19.113281 -7.484375 19.910156 -7.578125 20.671875 -7.765625 C 21.429688 -7.953125 22.40625 -8.238281 23.59375 -8.625 C 24.5625 -8.96875 25.21875 -9.140625 25.5625 -9.140625 C 25.9375 -9.140625 26.125 -8.914062 26.125 -8.46875 C 26.164062 -7.257812 25.71875 -5.988281 24.78125 -4.65625 C 23.84375 -3.320312 22.457031 -2.1875 20.625 -1.25 C 18.789062 -0.3125 16.570312 0.15625 13.96875 0.15625 C 10.125 0.15625 6.972656 -0.8125 4.515625 -2.75 C 2.054688 -4.6875 0.828125 -7.507812 0.828125 -11.21875 C 0.828125 -12.257812 0.96875 -13.472656 1.25 -14.859375 C 2.113281 -19.117188 4.007812 -22.332031 6.9375 -24.5 C 9.863281 -26.664062 13.421875 -27.75 17.609375 -27.75 Z M 12.984375 -15.484375 C 13.128906 -15.453125 13.320312 -15.4375 13.5625 -15.4375 C 15.007812 -15.4375 16.113281 -16.109375 16.875 -17.453125 C 17.644531 -18.804688 18.007812 -20.3125 17.96875 -21.96875 C 17.9375 -22.945312 17.660156 -23.4375 17.140625 -23.4375 C 16.765625 -23.4375 16.316406 -23.128906 15.796875 -22.515625 C 15.273438 -21.910156 14.757812 -21 14.25 -19.78125 C 13.75 -18.570312 13.328125 -17.140625 12.984375 -15.484375 Z M 12.984375 -15.484375"/></g></g></g><g fill-opacity="1" fill="#ffeedc"><g transform="translate(329.049951, 103.55423)"><g><path d="M 32.15625 -7.171875 C 32.09375 -7.035156 32.0625 -6.828125 32.0625 -6.546875 C 32.0625 -6.304688 32.117188 -6.113281 32.234375 -5.96875 C 32.359375 -5.832031 32.523438 -5.765625 32.734375 -5.765625 C 33.148438 -5.765625 33.503906 -5.945312 33.796875 -6.3125 C 34.085938 -6.675781 34.285156 -6.859375 34.390625 -6.859375 C 34.566406 -6.859375 34.707031 -6.742188 34.8125 -6.515625 C 34.914062 -6.296875 34.96875 -6.03125 34.96875 -5.71875 C 35 -4.707031 34.664062 -3.722656 33.96875 -2.765625 C 33.28125 -1.816406 32.269531 -1.039062 30.9375 -0.4375 C 29.601562 0.164062 28 0.46875 26.125 0.46875 C 23.84375 0.46875 22.023438 -0.0546875 20.671875 -1.109375 C 19.328125 -2.171875 18.632812 -3.582031 18.59375 -5.34375 C 18.59375 -6.625 18.90625 -8.0625 19.53125 -9.65625 L 22.390625 -17.140625 C 22.566406 -17.585938 22.65625 -17.953125 22.65625 -18.234375 C 22.65625 -18.679688 22.503906 -19.035156 22.203125 -19.296875 C 21.910156 -19.554688 21.554688 -19.6875 21.140625 -19.6875 C 20.378906 -19.6875 19.648438 -19.332031 18.953125 -18.625 C 18.265625 -17.914062 17.765625 -17.039062 17.453125 -16 L 14.234375 -5.40625 C 14.097656 -5.019531 14.03125 -4.65625 14.03125 -4.3125 C 14.03125 -3.894531 14.113281 -3.554688 14.28125 -3.296875 C 14.457031 -3.035156 14.703125 -2.769531 15.015625 -2.5 C 15.253906 -2.289062 15.425781 -2.097656 15.53125 -1.921875 C 15.632812 -1.742188 15.648438 -1.535156 15.578125 -1.296875 C 15.441406 -0.847656 15.113281 -0.519531 14.59375 -0.3125 C 14.070312 -0.101562 13.257812 0 12.15625 0 L 0.3125 0 C -0.582031 0 -1.226562 -0.144531 -1.625 -0.4375 C -2.03125 -0.738281 -2.179688 -1.128906 -2.078125 -1.609375 C -1.941406 -2.023438 -1.578125 -2.390625 -0.984375 -2.703125 C -0.460938 -2.972656 -0.03125 -3.300781 0.3125 -3.6875 C 0.65625 -4.070312 0.945312 -4.675781 1.1875 -5.5 L 5.8125 -20.515625 C 5.882812 -20.691406 5.921875 -20.9375 5.921875 -21.25 C 5.921875 -21.625 5.84375 -21.914062 5.6875 -22.125 C 5.53125 -22.332031 5.28125 -22.59375 4.9375 -22.90625 C 4.59375 -23.1875 4.347656 -23.429688 4.203125 -23.640625 C 4.066406 -23.847656 4.050781 -24.125 4.15625 -24.46875 C 4.363281 -25.269531 5.453125 -25.972656 7.421875 -26.578125 C 9.398438 -27.179688 11.460938 -27.484375 13.609375 -27.484375 C 15.335938 -27.484375 16.703125 -27.003906 17.703125 -26.046875 C 18.710938 -25.097656 19.164062 -23.773438 19.0625 -22.078125 C 20.488281 -24.117188 21.992188 -25.53125 23.578125 -26.3125 C 25.171875 -27.09375 26.90625 -27.484375 28.78125 -27.484375 C 30.894531 -27.484375 32.597656 -26.84375 33.890625 -25.5625 C 35.191406 -24.28125 35.84375 -22.617188 35.84375 -20.578125 C 35.84375 -19.503906 35.671875 -18.445312 35.328125 -17.40625 Z M 32.15625 -7.171875"/></g></g></g><g fill-opacity="1" fill="#ffeedc"><g transform="translate(366.255978, 103.55423)"><g/></g></g><g fill-opacity="1" fill="#ffeedc"><g transform="translate(162.373251, 153.846531)"><g><path d="M 28 -34.59375 C 31.675781 -34.59375 34.507812 -33.796875 36.5 -32.203125 C 38.488281 -30.617188 39.484375 -28.507812 39.484375 -25.875 C 39.484375 -24.832031 39.328125 -23.738281 39.015625 -22.59375 C 38.046875 -19.132812 36.128906 -16.570312 33.265625 -14.90625 C 30.410156 -13.25 26.800781 -12.421875 22.4375 -12.421875 L 17.09375 -12.421875 L 15.328125 -6.125 C 15.253906 -5.914062 15.21875 -5.640625 15.21875 -5.296875 C 15.21875 -4.816406 15.328125 -4.421875 15.546875 -4.109375 C 15.773438 -3.796875 16.117188 -3.429688 16.578125 -3.015625 C 16.953125 -2.671875 17.207031 -2.410156 17.34375 -2.234375 C 17.488281 -2.054688 17.5625 -1.847656 17.5625 -1.609375 C 17.5625 -1.023438 17.28125 -0.609375 16.71875 -0.359375 C 16.164062 -0.117188 15.351562 0 14.28125 0 L 1.25 0 C 0.34375 0 -0.332031 -0.160156 -0.78125 -0.484375 C -1.226562 -0.816406 -1.382812 -1.28125 -1.25 -1.875 C -1.175781 -2.1875 -1.046875 -2.4375 -0.859375 -2.625 C -0.671875 -2.8125 -0.382812 -3.023438 0 -3.265625 C 0.59375 -3.617188 1.0625 -3.984375 1.40625 -4.359375 C 1.75 -4.742188 2.023438 -5.332031 2.234375 -6.125 L 8.578125 -28.515625 C 8.710938 -28.972656 8.78125 -29.410156 8.78125 -29.828125 C 8.78125 -30.203125 8.71875 -30.519531 8.59375 -30.78125 C 8.476562 -31.039062 8.316406 -31.34375 8.109375 -31.6875 C 7.796875 -32.132812 7.640625 -32.5 7.640625 -32.78125 C 7.640625 -32.882812 7.671875 -33.078125 7.734375 -33.359375 C 7.878906 -33.804688 8.179688 -34.125 8.640625 -34.3125 C 9.109375 -34.5 9.832031 -34.59375 10.8125 -34.59375 Z M 26.65625 -23.53125 C 27.03125 -24.8125 27.21875 -25.9375 27.21875 -26.90625 C 27.21875 -28.914062 26.285156 -29.921875 24.421875 -29.921875 L 22.078125 -29.921875 L 18.390625 -17.09375 L 20.671875 -17.09375 C 22.128906 -17.09375 23.316406 -17.550781 24.234375 -18.46875 C 25.148438 -19.382812 25.957031 -21.070312 26.65625 -23.53125 Z M 26.65625 -23.53125"/></g></g></g><g fill-opacity="1" fill="#ffeedc"><g transform="translate(197.855051, 153.846531)"><g><path d="M 18.546875 -27.484375 C 22.523438 -27.484375 25.707031 -26.742188 28.09375 -25.265625 C 30.488281 -23.796875 31.6875 -21.554688 31.6875 -18.546875 C 31.6875 -17.398438 31.476562 -16.101562 31.0625 -14.65625 L 28.9375 -7.484375 C 28.90625 -7.335938 28.890625 -7.164062 28.890625 -6.96875 C 28.890625 -6.40625 29.113281 -6.125 29.5625 -6.125 C 29.976562 -6.125 30.332031 -6.304688 30.625 -6.671875 C 30.914062 -7.035156 31.113281 -7.21875 31.21875 -7.21875 C 31.394531 -7.21875 31.539062 -7.097656 31.65625 -6.859375 C 31.78125 -6.617188 31.84375 -6.34375 31.84375 -6.03125 C 31.882812 -5.09375 31.53125 -4.140625 30.78125 -3.171875 C 30.039062 -2.203125 29.046875 -1.40625 27.796875 -0.78125 C 26.546875 -0.15625 25.175781 0.15625 23.6875 0.15625 C 21.882812 0.15625 20.34375 -0.171875 19.0625 -0.828125 C 17.78125 -1.484375 16.898438 -2.453125 16.421875 -3.734375 C 15.378906 -2.492188 14.144531 -1.535156 12.71875 -0.859375 C 11.300781 -0.179688 9.78125 0.15625 8.15625 0.15625 C 6.320312 0.15625 4.78125 -0.195312 3.53125 -0.90625 C 2.28125 -1.613281 1.351562 -2.53125 0.75 -3.65625 C 0.144531 -4.78125 -0.15625 -5.96875 -0.15625 -7.21875 C -0.15625 -7.769531 -0.101562 -8.304688 0 -8.828125 C 0.550781 -11.222656 1.753906 -13.023438 3.609375 -14.234375 C 5.460938 -15.441406 7.671875 -16.046875 10.234375 -16.046875 C 13.109375 -16.046875 15.929688 -15.597656 18.703125 -14.703125 L 20 -18.125 C 20.445312 -19.582031 20.671875 -20.710938 20.671875 -21.515625 C 20.640625 -22.335938 20.363281 -22.957031 19.84375 -23.375 C 19.320312 -23.789062 18.523438 -24 17.453125 -24 C 17.660156 -23.445312 17.765625 -22.875 17.765625 -22.28125 C 17.765625 -21 17.28125 -19.890625 16.3125 -18.953125 C 15.34375 -18.023438 13.957031 -17.5625 12.15625 -17.5625 C 10.457031 -17.5625 9.128906 -17.929688 8.171875 -18.671875 C 7.222656 -19.421875 6.75 -20.347656 6.75 -21.453125 C 6.75 -23.179688 7.71875 -24.617188 9.65625 -25.765625 C 11.601562 -26.910156 14.566406 -27.484375 18.546875 -27.484375 Z M 15.640625 -11.734375 C 14.671875 -11.734375 13.878906 -11.359375 13.265625 -10.609375 C 12.660156 -9.867188 12.359375 -9.066406 12.359375 -8.203125 C 12.359375 -7.648438 12.488281 -7.203125 12.75 -6.859375 C 13.007812 -6.515625 13.382812 -6.34375 13.875 -6.34375 C 14.320312 -6.34375 14.8125 -6.519531 15.34375 -6.875 C 15.882812 -7.238281 16.273438 -7.785156 16.515625 -8.515625 L 17.609375 -11.578125 C 17.023438 -11.679688 16.367188 -11.734375 15.640625 -11.734375 Z M 15.640625 -11.734375"/></g></g></g><g fill-opacity="1" fill="#ffeedc"><g transform="translate(230.271784, 153.846531)"><g><path d="M 29.046875 -7.484375 C 28.972656 -7.203125 28.9375 -7.007812 28.9375 -6.90625 C 28.9375 -6.664062 29.003906 -6.472656 29.140625 -6.328125 C 29.285156 -6.191406 29.460938 -6.125 29.671875 -6.125 C 30.078125 -6.125 30.425781 -6.304688 30.71875 -6.671875 C 31.019531 -7.035156 31.222656 -7.21875 31.328125 -7.21875 C 31.503906 -7.21875 31.644531 -7.097656 31.75 -6.859375 C 31.851562 -6.617188 31.90625 -6.34375 31.90625 -6.03125 C 31.9375 -5.09375 31.578125 -4.140625 30.828125 -3.171875 C 30.085938 -2.203125 29.09375 -1.40625 27.84375 -0.78125 C 26.59375 -0.15625 25.242188 0.15625 23.796875 0.15625 C 22.066406 0.15625 20.5625 -0.171875 19.28125 -0.828125 C 18 -1.484375 17.113281 -2.347656 16.625 -3.421875 C 15.6875 -2.210938 14.609375 -1.3125 13.390625 -0.71875 C 12.179688 -0.132812 10.90625 0.15625 9.5625 0.15625 C 7.96875 0.15625 6.484375 -0.238281 5.109375 -1.03125 C 3.742188 -1.832031 2.65625 -2.96875 1.84375 -4.4375 C 1.03125 -5.914062 0.625 -7.585938 0.625 -9.453125 C 0.625 -12.609375 1.21875 -15.578125 2.40625 -18.359375 C 3.601562 -21.148438 5.273438 -23.398438 7.421875 -25.109375 C 9.578125 -26.828125 12.019531 -27.6875 14.75 -27.6875 C 16.238281 -27.6875 17.507812 -27.515625 18.5625 -27.171875 C 19.625 -26.828125 20.585938 -26.304688 21.453125 -25.609375 L 23.21875 -31.4375 C 23.320312 -31.75 23.375 -32.003906 23.375 -32.203125 C 23.375 -32.585938 23.28125 -32.898438 23.09375 -33.140625 C 22.90625 -33.390625 22.65625 -33.632812 22.34375 -33.875 C 21.988281 -34.144531 21.734375 -34.382812 21.578125 -34.59375 C 21.429688 -34.800781 21.410156 -35.082031 21.515625 -35.4375 C 21.710938 -36.226562 22.800781 -36.914062 24.78125 -37.5 C 26.757812 -38.09375 28.820312 -38.390625 30.96875 -38.390625 C 32.976562 -38.390625 34.457031 -38.007812 35.40625 -37.25 C 36.351562 -36.488281 36.828125 -35.453125 36.828125 -34.140625 C 36.828125 -33.367188 36.707031 -32.625 36.46875 -31.90625 Z M 20.359375 -22.078125 C 19.804688 -22.566406 19.203125 -22.8125 18.546875 -22.8125 C 17.546875 -22.8125 16.554688 -22.066406 15.578125 -20.578125 C 14.609375 -19.085938 13.828125 -17.285156 13.234375 -15.171875 C 12.648438 -13.054688 12.378906 -11.148438 12.421875 -9.453125 C 12.421875 -7.546875 13.039062 -6.59375 14.28125 -6.59375 C 14.738281 -6.59375 15.117188 -6.773438 15.421875 -7.140625 C 15.734375 -7.503906 16.03125 -8.101562 16.3125 -8.9375 Z M 20.359375 -22.078125"/></g></g></g><g fill-opacity="1" fill="#ffeedc"><g transform="translate(260.142946, 153.846531)"><g><path d="M 29.046875 -7.484375 C 28.972656 -7.203125 28.9375 -7.007812 28.9375 -6.90625 C 28.9375 -6.664062 29.003906 -6.472656 29.140625 -6.328125 C 29.285156 -6.191406 29.460938 -6.125 29.671875 -6.125 C 30.078125 -6.125 30.425781 -6.304688 30.71875 -6.671875 C 31.019531 -7.035156 31.222656 -7.21875 31.328125 -7.21875 C 31.503906 -7.21875 31.644531 -7.097656 31.75 -6.859375 C 31.851562 -6.617188 31.90625 -6.34375 31.90625 -6.03125 C 31.9375 -5.09375 31.578125 -4.140625 30.828125 -3.171875 C 30.085938 -2.203125 29.09375 -1.40625 27.84375 -0.78125 C 26.59375 -0.15625 25.242188 0.15625 23.796875 0.15625 C 22.066406 0.15625 20.5625 -0.171875 19.28125 -0.828125 C 18 -1.484375 17.113281 -2.347656 16.625 -3.421875 C 15.6875 -2.210938 14.609375 -1.3125 13.390625 -0.71875 C 12.179688 -0.132812 10.90625 0.15625 9.5625 0.15625 C 7.96875 0.15625 6.484375 -0.238281 5.109375 -1.03125 C 3.742188 -1.832031 2.65625 -2.96875 1.84375 -4.4375 C 1.03125 -5.914062 0.625 -7.585938 0.625 -9.453125 C 0.625 -12.609375 1.21875 -15.578125 2.40625 -18.359375 C 3.601562 -21.148438 5.273438 -23.398438 7.421875 -25.109375 C 9.578125 -26.828125 12.019531 -27.6875 14.75 -27.6875 C 16.238281 -27.6875 17.507812 -27.515625 18.5625 -27.171875 C 19.625 -26.828125 20.585938 -26.304688 21.453125 -25.609375 L 23.21875 -31.4375 C 23.320312 -31.75 23.375 -32.003906 23.375 -32.203125 C 23.375 -32.585938 23.28125 -32.898438 23.09375 -33.140625 C 22.90625 -33.390625 22.65625 -33.632812 22.34375 -33.875 C 21.988281 -34.144531 21.734375 -34.382812 21.578125 -34.59375 C 21.429688 -34.800781 21.410156 -35.082031 21.515625 -35.4375 C 21.710938 -36.226562 22.800781 -36.914062 24.78125 -37.5 C 26.757812 -38.09375 28.820312 -38.390625 30.96875 -38.390625 C 32.976562 -38.390625 34.457031 -38.007812 35.40625 -37.25 C 36.351562 -36.488281 36.828125 -35.453125 36.828125 -34.140625 C 36.828125 -33.367188 36.707031 -32.625 36.46875 -31.90625 Z M 20.359375 -22.078125 C 19.804688 -22.566406 19.203125 -22.8125 18.546875 -22.8125 C 17.546875 -22.8125 16.554688 -22.066406 15.578125 -20.578125 C 14.609375 -19.085938 13.828125 -17.285156 13.234375 -15.171875 C 12.648438 -13.054688 12.378906 -11.148438 12.421875 -9.453125 C 12.421875 -7.546875 13.039062 -6.59375 14.28125 -6.59375 C 14.738281 -6.59375 15.117188 -6.773438 15.421875 -7.140625 C 15.734375 -7.503906 16.03125 -8.101562 16.3125 -8.9375 Z M 20.359375 -22.078125"/></g></g></g><g fill-opacity="1" fill="#ffeedc"><g transform="translate(294.170139, 153.846531)"><g><path d="M 16.578125 -38.390625 C 18.585938 -38.390625 20.066406 -38.007812 21.015625 -37.25 C 21.960938 -36.488281 22.4375 -35.453125 22.4375 -34.140625 C 22.4375 -33.367188 22.316406 -32.625 22.078125 -31.90625 L 13.921875 -5.40625 C 13.816406 -4.988281 13.765625 -4.625 13.765625 -4.3125 C 13.765625 -3.863281 13.847656 -3.507812 14.015625 -3.25 C 14.191406 -2.988281 14.4375 -2.738281 14.75 -2.5 C 15 -2.25 15.175781 -2.046875 15.28125 -1.890625 C 15.382812 -1.734375 15.398438 -1.535156 15.328125 -1.296875 C 15.148438 -0.847656 14.800781 -0.519531 14.28125 -0.3125 C 13.757812 -0.101562 12.960938 0 11.890625 0 L 0.046875 0 C -0.847656 0 -1.503906 -0.144531 -1.921875 -0.4375 C -2.335938 -0.738281 -2.476562 -1.128906 -2.34375 -1.609375 C -2.195312 -2.023438 -1.832031 -2.390625 -1.25 -2.703125 C -0.726562 -2.972656 -0.296875 -3.300781 0.046875 -3.6875 C 0.398438 -4.070312 0.695312 -4.675781 0.9375 -5.5 L 8.828125 -31.4375 C 8.929688 -31.75 8.984375 -32.003906 8.984375 -32.203125 C 8.984375 -32.585938 8.890625 -32.898438 8.703125 -33.140625 C 8.515625 -33.390625 8.265625 -33.632812 7.953125 -33.875 C 7.597656 -34.144531 7.34375 -34.382812 7.1875 -34.59375 C 7.039062 -34.800781 7.019531 -35.082031 7.125 -35.4375 C 7.320312 -36.226562 8.410156 -36.914062 10.390625 -37.5 C 12.367188 -38.09375 14.429688 -38.390625 16.578125 -38.390625 Z M 16.578125 -38.390625"/></g></g></g><g fill-opacity="1" fill="#ffeedc"><g transform="translate(313.183807, 153.846531)"><g><path d="M 17.609375 -27.75 C 22.003906 -27.75 25.1875 -27.046875 27.15625 -25.640625 C 29.132812 -24.234375 30.125 -22.441406 30.125 -20.265625 C 30.125 -19.609375 30.054688 -19 29.921875 -18.4375 C 29.398438 -16.15625 27.953125 -14.519531 25.578125 -13.53125 C 23.210938 -12.539062 20.421875 -12.046875 17.203125 -12.046875 C 15.566406 -12.046875 14.039062 -12.148438 12.625 -12.359375 C 12.59375 -10.554688 13.078125 -9.289062 14.078125 -8.5625 C 15.078125 -7.84375 16.476562 -7.484375 18.28125 -7.484375 C 19.113281 -7.484375 19.910156 -7.578125 20.671875 -7.765625 C 21.429688 -7.953125 22.40625 -8.238281 23.59375 -8.625 C 24.5625 -8.96875 25.21875 -9.140625 25.5625 -9.140625 C 25.9375 -9.140625 26.125 -8.914062 26.125 -8.46875 C 26.164062 -7.257812 25.71875 -5.988281 24.78125 -4.65625 C 23.84375 -3.320312 22.457031 -2.1875 20.625 -1.25 C 18.789062 -0.3125 16.570312 0.15625 13.96875 0.15625 C 10.125 0.15625 6.972656 -0.8125 4.515625 -2.75 C 2.054688 -4.6875 0.828125 -7.507812 0.828125 -11.21875 C 0.828125 -12.257812 0.96875 -13.472656 1.25 -14.859375 C 2.113281 -19.117188 4.007812 -22.332031 6.9375 -24.5 C 9.863281 -26.664062 13.421875 -27.75 17.609375 -27.75 Z M 12.984375 -15.484375 C 13.128906 -15.453125 13.320312 -15.4375 13.5625 -15.4375 C 15.007812 -15.4375 16.113281 -16.109375 16.875 -17.453125 C 17.644531 -18.804688 18.007812 -20.3125 17.96875 -21.96875 C 17.9375 -22.945312 17.660156 -23.4375 17.140625 -23.4375 C 16.765625 -23.4375 16.316406 -23.128906 15.796875 -22.515625 C 15.273438 -21.910156 14.757812 -21 14.25 -19.78125 C 13.75 -18.570312 13.328125 -17.140625 12.984375 -15.484375 Z M 12.984375 -15.484375"/></g></g></g><g fill-opacity="1" fill="#ffeedc"><g transform="translate(342.275759, 153.846531)"><g><path d="M 17.09375 -27.953125 C 19.96875 -27.953125 22.453125 -27.691406 24.546875 -27.171875 C 26.640625 -26.648438 28.25 -25.921875 29.375 -24.984375 C 30.5 -24.054688 31.0625 -23 31.0625 -21.8125 C 31.0625 -20.601562 30.582031 -19.617188 29.625 -18.859375 C 28.675781 -18.097656 27.359375 -17.71875 25.671875 -17.71875 C 23.929688 -17.71875 22.460938 -18.148438 21.265625 -19.015625 C 20.078125 -19.878906 19.484375 -20.96875 19.484375 -22.28125 C 19.484375 -22.738281 19.550781 -23.175781 19.6875 -23.59375 C 19.0625 -23.757812 18.507812 -23.84375 18.03125 -23.84375 C 17.164062 -23.84375 16.445312 -23.632812 15.875 -23.21875 C 15.300781 -22.800781 15.03125 -22.210938 15.0625 -21.453125 C 15.0625 -20.554688 15.507812 -19.796875 16.40625 -19.171875 C 17.3125 -18.546875 18.769531 -17.765625 20.78125 -16.828125 C 22.507812 -16.066406 23.9375 -15.363281 25.0625 -14.71875 C 26.1875 -14.082031 27.140625 -13.28125 27.921875 -12.3125 C 28.703125 -11.34375 29.09375 -10.203125 29.09375 -8.890625 C 29.09375 -8.609375 29.023438 -8.085938 28.890625 -7.328125 C 28.328125 -5.003906 26.78125 -3.164062 24.25 -1.8125 C 21.726562 -0.46875 18.40625 0.203125 14.28125 0.203125 C 9.644531 0.203125 5.96875 -0.414062 3.25 -1.65625 C 0.53125 -2.90625 -0.828125 -4.625 -0.828125 -6.8125 C -0.828125 -8.300781 -0.378906 -9.425781 0.515625 -10.1875 C 1.421875 -10.945312 2.617188 -11.328125 4.109375 -11.328125 C 5.835938 -11.328125 7.316406 -10.789062 8.546875 -9.71875 C 9.773438 -8.644531 10.390625 -7.273438 10.390625 -5.609375 C 10.390625 -5.160156 10.335938 -4.691406 10.234375 -4.203125 C 11.066406 -3.992188 11.863281 -3.890625 12.625 -3.890625 C 13.519531 -3.890625 14.257812 -4.128906 14.84375 -4.609375 C 15.4375 -5.097656 15.734375 -5.78125 15.734375 -6.65625 C 15.703125 -7.445312 15.304688 -8.128906 14.546875 -8.703125 C 13.785156 -9.273438 12.570312 -9.957031 10.90625 -10.75 C 9.351562 -11.476562 8.070312 -12.160156 7.0625 -12.796875 C 6.0625 -13.441406 5.203125 -14.25 4.484375 -15.21875 C 3.773438 -16.1875 3.421875 -17.332031 3.421875 -18.65625 C 3.421875 -21.488281 4.609375 -23.742188 6.984375 -25.421875 C 9.359375 -27.109375 12.726562 -27.953125 17.09375 -27.953125 Z M 17.09375 -27.953125"/></g></g></g><g fill-opacity="1" fill="#ffeedc"><g transform="translate(373.082765, 153.846531)"><g/></g></g><g mask="url(#23497f5412)"><g transform="matrix(1, 0, 0, 1, 78, 54)"><g clip-path="url(#2e927103b8)"><path fill-rule="nonzero" fill-opacity="1" d="M 13.722656 26.96875 L 15.332031 29.121094 L 15.320312 29.105469 L 16.9375 31.25 L 16.925781 31.230469 L 18.550781 33.371094 L 18.535156 33.355469 L 20.167969 35.488281 L 20.15625 35.472656 L 21.792969 37.601562 L 21.78125 37.582031 L 23.355469 39.613281 L 23.339844 39.597656 L 24.921875 41.625 L 24.90625 41.605469 L 26.492188 43.628906 L 26.480469 43.613281 L 28.074219 45.628906 L 28.058594 45.613281 L 29.65625 47.625 C 32.015625 50.59375 31.523438 54.910156 28.554688 57.269531 C 25.585938 59.628906 21.265625 59.132812 18.90625 56.164062 L 17.308594 54.152344 L 17.296875 54.136719 L 15.703125 52.121094 L 15.691406 52.105469 L 14.105469 50.082031 L 14.09375 50.066406 L 12.511719 48.039062 L 12.5 48.023438 L 10.925781 45.992188 L 10.914062 45.976562 L 9.273438 43.847656 L 9.261719 43.828125 L 7.628906 41.695312 L 7.613281 41.675781 L 5.988281 39.535156 L 5.976562 39.519531 L 4.359375 37.375 L 4.34375 37.355469 L 2.734375 35.207031 C 0.460938 32.171875 1.074219 27.867188 4.109375 25.59375 C 7.144531 23.320312 11.445312 23.9375 13.722656 26.96875 Z M 13.722656 26.96875" fill="#ffeedc"/><g clip-path="url(#31c416dcdf)"><path fill-rule="nonzero" fill-opacity="1" d="M 20.28125 47.597656 L 24.035156 43.261719 L 24.019531 43.277344 L 27.761719 38.929688 L 27.746094 38.945312 L 31.472656 34.585938 L 31.460938 34.605469 L 35.171875 30.234375 L 35.160156 30.25 L 38.859375 25.867188 L 38.84375 25.882812 L 42.679688 21.3125 L 42.664062 21.328125 L 46.484375 16.742188 L 46.472656 16.757812 L 50.277344 12.164062 L 50.261719 12.179688 L 54.054688 7.570312 L 54.039062 7.585938 L 57.816406 2.964844 C 60.214844 0.0273438 64.539062 -0.40625 67.476562 1.992188 C 70.414062 4.390625 70.847656 8.71875 68.449219 11.652344 L 64.671875 16.273438 L 64.660156 16.292969 L 60.867188 20.902344 L 60.855469 20.917969 L 57.046875 25.515625 L 57.035156 25.53125 L 53.214844 30.117188 L 53.199219 30.132812 L 49.363281 34.707031 L 49.351562 34.722656 L 45.652344 39.105469 L 45.636719 39.121094 L 41.925781 43.492188 L 41.910156 43.507812 L 38.183594 47.867188 L 38.171875 47.886719 L 34.429688 52.234375 L 34.417969 52.25 L 30.664062 56.585938 C 28.179688 59.453125 23.84375 59.765625 20.980469 57.28125 C 18.113281 54.800781 17.800781 50.464844 20.28125 47.597656 Z M 20.28125 47.597656" fill="#ffeedc"/></g></g></g></g></svg>